<svg viewBox="0 0 640 360" xmlns="http://www.w3.org/2000/svg" role="img" aria-labelledby="dashTitle dashDesc">
  <title id="dashTitle">Dashboard layout mockup</title>
  <desc id="dashDesc">Sidebar navigation with header cards and channel table</desc>
  <rect width="640" height="360" rx="16" fill="#f8fafc"/>
  <rect x="16" y="16" width="120" height="328" rx="12" fill="#1e293b"/>
  <rect x="40" y="64" width="72" height="20" rx="4" fill="#38bdf8"/>
  <rect x="40" y="104" width="72" height="20" rx="4" fill="#334155"/>
  <rect x="40" y="144" width="72" height="20" rx="4" fill="#334155" opacity="0.6"/>
  <text x="40" y="48" font-family="Arial, Helvetica, sans-serif" font-size="14" fill="#e2e8f0">Menu</text>
  <rect x="152" y="32" width="472" height="72" rx="12" fill="#ffffff" stroke="#cbd5f5"/>
  <rect x="168" y="48" width="136" height="40" rx="10" fill="#2563eb" opacity="0.18"/>
  <rect x="320" y="48" width="136" height="40" rx="10" fill="#2563eb" opacity="0.12"/>
  <rect x="472" y="48" width="136" height="40" rx="10" fill="#2563eb" opacity="0.12"/>
  <rect x="152" y="128" width="472" height="192" rx="12" fill="#ffffff" stroke="#cbd5f5"/>
  <rect x="168" y="152" width="440" height="32" rx="6" fill="#e2e8f0"/>
  <rect x="168" y="200" width="440" height="24" rx="4" fill="#f1f5f9"/>
  <rect x="168" y="232" width="440" height="24" rx="4" fill="#f1f5f9"/>
  <rect x="168" y="264" width="440" height="24" rx="4" fill="#f1f5f9"/>
  <text x="168" y="144" font-family="Arial, Helvetica, sans-serif" font-size="13" fill="#475569">Active plans and performance summary</text>
</svg>
